<mxfile host="app.diagrams.net" agent="Mozilla/5.0 (X11; Ubuntu; Linux x86_64; rv:127.0) Gecko/20100101 Firefox/127.0" version="24.7.10">
  <diagram name="Página-1" id="fjuZX8W1b5goHcF-tEh_">
    <mxGraphModel dx="1434" dy="792" grid="1" gridSize="10" guides="1" tooltips="1" connect="1" arrows="1" fold="1" page="1" pageScale="1" pageWidth="827" pageHeight="1169" math="0" shadow="0">
      <root>
        <mxCell id="0" />
        <mxCell id="1" parent="0" />
        <mxCell id="JWG3_DC7RgaYngt3Psp8-32" value="" style="edgeStyle=orthogonalEdgeStyle;rounded=0;orthogonalLoop=1;jettySize=auto;html=1;entryX=0.5;entryY=0.15;entryDx=0;entryDy=0;entryPerimeter=0;" edge="1" parent="1" source="JWG3_DC7RgaYngt3Psp8-1" target="JWG3_DC7RgaYngt3Psp8-3">
          <mxGeometry relative="1" as="geometry" />
        </mxCell>
        <mxCell id="JWG3_DC7RgaYngt3Psp8-1" value="Início" style="strokeWidth=2;html=1;shape=mxgraph.flowchart.terminator;whiteSpace=wrap;" vertex="1" parent="1">
          <mxGeometry x="538" y="10" width="100" height="60" as="geometry" />
        </mxCell>
        <mxCell id="JWG3_DC7RgaYngt3Psp8-2" value="&lt;div&gt;&lt;br&gt;&lt;/div&gt;&lt;div&gt;kg&lt;/div&gt;" style="html=1;strokeWidth=2;shape=manualInput;whiteSpace=wrap;rounded=1;size=26;arcSize=11;" vertex="1" parent="1">
          <mxGeometry x="538" y="91" width="100" height="60" as="geometry" />
        </mxCell>
        <mxCell id="JWG3_DC7RgaYngt3Psp8-33" value="" style="edgeStyle=orthogonalEdgeStyle;rounded=0;orthogonalLoop=1;jettySize=auto;html=1;" edge="1" parent="1" source="JWG3_DC7RgaYngt3Psp8-3" target="JWG3_DC7RgaYngt3Psp8-4">
          <mxGeometry relative="1" as="geometry" />
        </mxCell>
        <mxCell id="JWG3_DC7RgaYngt3Psp8-3" value="&lt;div&gt;m&lt;br&gt;&lt;/div&gt;" style="html=1;strokeWidth=2;shape=manualInput;whiteSpace=wrap;rounded=1;size=26;arcSize=11;" vertex="1" parent="1">
          <mxGeometry x="538" y="170" width="100" height="60" as="geometry" />
        </mxCell>
        <mxCell id="JWG3_DC7RgaYngt3Psp8-18" value="" style="edgeStyle=orthogonalEdgeStyle;rounded=0;orthogonalLoop=1;jettySize=auto;html=1;" edge="1" parent="1" source="JWG3_DC7RgaYngt3Psp8-4" target="JWG3_DC7RgaYngt3Psp8-5">
          <mxGeometry relative="1" as="geometry" />
        </mxCell>
        <mxCell id="JWG3_DC7RgaYngt3Psp8-4" value="IMC = kg/(m*m)" style="rounded=1;whiteSpace=wrap;html=1;absoluteArcSize=1;arcSize=14;strokeWidth=2;" vertex="1" parent="1">
          <mxGeometry x="538" y="260" width="100" height="100" as="geometry" />
        </mxCell>
        <mxCell id="JWG3_DC7RgaYngt3Psp8-20" value="" style="edgeStyle=orthogonalEdgeStyle;rounded=0;orthogonalLoop=1;jettySize=auto;html=1;" edge="1" parent="1" source="JWG3_DC7RgaYngt3Psp8-5" target="JWG3_DC7RgaYngt3Psp8-7">
          <mxGeometry relative="1" as="geometry" />
        </mxCell>
        <mxCell id="JWG3_DC7RgaYngt3Psp8-24" value="" style="edgeStyle=orthogonalEdgeStyle;rounded=0;orthogonalLoop=1;jettySize=auto;html=1;" edge="1" parent="1" source="JWG3_DC7RgaYngt3Psp8-5" target="JWG3_DC7RgaYngt3Psp8-23">
          <mxGeometry relative="1" as="geometry" />
        </mxCell>
        <mxCell id="JWG3_DC7RgaYngt3Psp8-5" value="IMC &amp;lt; 18.5" style="strokeWidth=2;html=1;shape=mxgraph.flowchart.decision;whiteSpace=wrap;" vertex="1" parent="1">
          <mxGeometry x="538" y="400" width="100" height="100" as="geometry" />
        </mxCell>
        <mxCell id="JWG3_DC7RgaYngt3Psp8-7" value="&quot;Abaixo do peso normal&quot;" style="strokeWidth=2;html=1;shape=mxgraph.flowchart.display;whiteSpace=wrap;" vertex="1" parent="1">
          <mxGeometry x="664" y="410" width="150" height="80" as="geometry" />
        </mxCell>
        <mxCell id="JWG3_DC7RgaYngt3Psp8-23" value="IMC &amp;lt; 24.9" style="strokeWidth=2;html=1;shape=mxgraph.flowchart.decision;whiteSpace=wrap;" vertex="1" parent="1">
          <mxGeometry x="414" y="515" width="100" height="100" as="geometry" />
        </mxCell>
        <mxCell id="JWG3_DC7RgaYngt3Psp8-25" value="" style="edgeStyle=orthogonalEdgeStyle;rounded=0;orthogonalLoop=1;jettySize=auto;html=1;" edge="1" parent="1" target="JWG3_DC7RgaYngt3Psp8-26">
          <mxGeometry relative="1" as="geometry">
            <mxPoint x="514" y="565" as="sourcePoint" />
          </mxGeometry>
        </mxCell>
        <mxCell id="JWG3_DC7RgaYngt3Psp8-26" value="&quot;Peso normal&quot;" style="strokeWidth=2;html=1;shape=mxgraph.flowchart.display;whiteSpace=wrap;" vertex="1" parent="1">
          <mxGeometry x="540" y="525" width="150" height="80" as="geometry" />
        </mxCell>
        <mxCell id="JWG3_DC7RgaYngt3Psp8-31" value="" style="edgeStyle=orthogonalEdgeStyle;rounded=0;orthogonalLoop=1;jettySize=auto;html=1;" edge="1" parent="1" source="JWG3_DC7RgaYngt3Psp8-27" target="JWG3_DC7RgaYngt3Psp8-30">
          <mxGeometry relative="1" as="geometry" />
        </mxCell>
        <mxCell id="JWG3_DC7RgaYngt3Psp8-35" value="" style="edgeStyle=orthogonalEdgeStyle;rounded=0;orthogonalLoop=1;jettySize=auto;html=1;" edge="1" parent="1" source="JWG3_DC7RgaYngt3Psp8-27" target="JWG3_DC7RgaYngt3Psp8-34">
          <mxGeometry relative="1" as="geometry" />
        </mxCell>
        <mxCell id="JWG3_DC7RgaYngt3Psp8-27" value="IMC &amp;lt; 29.9" style="strokeWidth=2;html=1;shape=mxgraph.flowchart.decision;whiteSpace=wrap;" vertex="1" parent="1">
          <mxGeometry x="260" y="620" width="100" height="100" as="geometry" />
        </mxCell>
        <mxCell id="JWG3_DC7RgaYngt3Psp8-29" style="edgeStyle=orthogonalEdgeStyle;rounded=0;orthogonalLoop=1;jettySize=auto;html=1;exitX=0;exitY=0.5;exitDx=0;exitDy=0;exitPerimeter=0;entryX=0.5;entryY=0;entryDx=0;entryDy=0;entryPerimeter=0;" edge="1" parent="1" source="JWG3_DC7RgaYngt3Psp8-23" target="JWG3_DC7RgaYngt3Psp8-27">
          <mxGeometry relative="1" as="geometry" />
        </mxCell>
        <mxCell id="JWG3_DC7RgaYngt3Psp8-30" value="&quot;Excesso de peso&quot;" style="strokeWidth=2;html=1;shape=mxgraph.flowchart.display;whiteSpace=wrap;" vertex="1" parent="1">
          <mxGeometry x="400" y="630" width="150" height="80" as="geometry" />
        </mxCell>
        <mxCell id="JWG3_DC7RgaYngt3Psp8-37" value="" style="edgeStyle=orthogonalEdgeStyle;rounded=0;orthogonalLoop=1;jettySize=auto;html=1;" edge="1" parent="1" source="JWG3_DC7RgaYngt3Psp8-34" target="JWG3_DC7RgaYngt3Psp8-36">
          <mxGeometry relative="1" as="geometry" />
        </mxCell>
        <mxCell id="JWG3_DC7RgaYngt3Psp8-39" value="" style="edgeStyle=orthogonalEdgeStyle;rounded=0;orthogonalLoop=1;jettySize=auto;html=1;" edge="1" parent="1" source="JWG3_DC7RgaYngt3Psp8-34" target="JWG3_DC7RgaYngt3Psp8-38">
          <mxGeometry relative="1" as="geometry" />
        </mxCell>
        <mxCell id="JWG3_DC7RgaYngt3Psp8-34" value="&lt;div&gt;IMC &amp;lt; 34.9&lt;/div&gt;" style="strokeWidth=2;html=1;shape=mxgraph.flowchart.decision;whiteSpace=wrap;" vertex="1" parent="1">
          <mxGeometry x="130" y="730" width="100" height="100" as="geometry" />
        </mxCell>
        <mxCell id="JWG3_DC7RgaYngt3Psp8-36" value="&quot;Obesidade I&quot;" style="strokeWidth=2;html=1;shape=mxgraph.flowchart.display;whiteSpace=wrap;" vertex="1" parent="1">
          <mxGeometry x="260" y="740" width="150" height="80" as="geometry" />
        </mxCell>
        <mxCell id="JWG3_DC7RgaYngt3Psp8-41" value="" style="edgeStyle=orthogonalEdgeStyle;rounded=0;orthogonalLoop=1;jettySize=auto;html=1;" edge="1" parent="1" source="JWG3_DC7RgaYngt3Psp8-38" target="JWG3_DC7RgaYngt3Psp8-40">
          <mxGeometry relative="1" as="geometry" />
        </mxCell>
        <mxCell id="JWG3_DC7RgaYngt3Psp8-43" style="edgeStyle=orthogonalEdgeStyle;rounded=0;orthogonalLoop=1;jettySize=auto;html=1;exitX=0;exitY=0.5;exitDx=0;exitDy=0;" edge="1" parent="1" source="JWG3_DC7RgaYngt3Psp8-38" target="JWG3_DC7RgaYngt3Psp8-42">
          <mxGeometry relative="1" as="geometry" />
        </mxCell>
        <mxCell id="JWG3_DC7RgaYngt3Psp8-38" value="&lt;div&gt;IMC &amp;lt; 39.9&lt;/div&gt;" style="rhombus;whiteSpace=wrap;html=1;strokeWidth=2;" vertex="1" parent="1">
          <mxGeometry x="40" y="840" width="80" height="80" as="geometry" />
        </mxCell>
        <mxCell id="JWG3_DC7RgaYngt3Psp8-40" value="&quot;Obesidade II&quot;" style="strokeWidth=2;html=1;shape=mxgraph.flowchart.display;whiteSpace=wrap;" vertex="1" parent="1">
          <mxGeometry x="160" y="840" width="150" height="80" as="geometry" />
        </mxCell>
        <mxCell id="JWG3_DC7RgaYngt3Psp8-42" value="&quot;Obesidade III&quot;" style="strokeWidth=2;html=1;shape=mxgraph.flowchart.display;whiteSpace=wrap;" vertex="1" parent="1">
          <mxGeometry x="40" y="1000" width="100" height="60" as="geometry" />
        </mxCell>
        <mxCell id="JWG3_DC7RgaYngt3Psp8-44" value="Final" style="strokeWidth=2;html=1;shape=mxgraph.flowchart.terminator;whiteSpace=wrap;" vertex="1" parent="1">
          <mxGeometry x="570" y="1000" width="100" height="60" as="geometry" />
        </mxCell>
        <mxCell id="JWG3_DC7RgaYngt3Psp8-46" style="edgeStyle=orthogonalEdgeStyle;rounded=0;orthogonalLoop=1;jettySize=auto;html=1;exitX=1;exitY=0.5;exitDx=0;exitDy=0;exitPerimeter=0;entryX=0;entryY=0.5;entryDx=0;entryDy=0;entryPerimeter=0;" edge="1" parent="1" source="JWG3_DC7RgaYngt3Psp8-42" target="JWG3_DC7RgaYngt3Psp8-44">
          <mxGeometry relative="1" as="geometry" />
        </mxCell>
        <mxCell id="JWG3_DC7RgaYngt3Psp8-47" style="edgeStyle=orthogonalEdgeStyle;rounded=0;orthogonalLoop=1;jettySize=auto;html=1;exitX=1;exitY=0.5;exitDx=0;exitDy=0;exitPerimeter=0;entryX=0.11;entryY=0.11;entryDx=0;entryDy=0;entryPerimeter=0;" edge="1" parent="1" source="JWG3_DC7RgaYngt3Psp8-40" target="JWG3_DC7RgaYngt3Psp8-44">
          <mxGeometry relative="1" as="geometry" />
        </mxCell>
        <mxCell id="JWG3_DC7RgaYngt3Psp8-48" style="edgeStyle=orthogonalEdgeStyle;rounded=0;orthogonalLoop=1;jettySize=auto;html=1;exitX=1;exitY=0.5;exitDx=0;exitDy=0;exitPerimeter=0;entryX=0.5;entryY=0;entryDx=0;entryDy=0;entryPerimeter=0;" edge="1" parent="1" source="JWG3_DC7RgaYngt3Psp8-36" target="JWG3_DC7RgaYngt3Psp8-44">
          <mxGeometry relative="1" as="geometry" />
        </mxCell>
        <mxCell id="JWG3_DC7RgaYngt3Psp8-49" style="edgeStyle=orthogonalEdgeStyle;rounded=0;orthogonalLoop=1;jettySize=auto;html=1;exitX=1;exitY=0.5;exitDx=0;exitDy=0;exitPerimeter=0;entryX=0.89;entryY=0.11;entryDx=0;entryDy=0;entryPerimeter=0;" edge="1" parent="1" source="JWG3_DC7RgaYngt3Psp8-30" target="JWG3_DC7RgaYngt3Psp8-44">
          <mxGeometry relative="1" as="geometry" />
        </mxCell>
        <mxCell id="JWG3_DC7RgaYngt3Psp8-50" style="edgeStyle=orthogonalEdgeStyle;rounded=0;orthogonalLoop=1;jettySize=auto;html=1;exitX=1;exitY=0.5;exitDx=0;exitDy=0;exitPerimeter=0;entryX=1;entryY=0.5;entryDx=0;entryDy=0;entryPerimeter=0;" edge="1" parent="1" source="JWG3_DC7RgaYngt3Psp8-26" target="JWG3_DC7RgaYngt3Psp8-44">
          <mxGeometry relative="1" as="geometry" />
        </mxCell>
        <mxCell id="JWG3_DC7RgaYngt3Psp8-51" style="edgeStyle=orthogonalEdgeStyle;rounded=0;orthogonalLoop=1;jettySize=auto;html=1;exitX=0.5;exitY=1;exitDx=0;exitDy=0;exitPerimeter=0;entryX=0.5;entryY=1;entryDx=0;entryDy=0;entryPerimeter=0;" edge="1" parent="1" source="JWG3_DC7RgaYngt3Psp8-7" target="JWG3_DC7RgaYngt3Psp8-44">
          <mxGeometry relative="1" as="geometry" />
        </mxCell>
      </root>
    </mxGraphModel>
  </diagram>
</mxfile>
